<svg width="453" height="75" viewBox="0 0 453 75" fill="none" xmlns="http://www.w3.org/2000/svg">
<path d="M3 35C5.3 35 6.9 33.5 8.8 27.1C11.7 17.3 20.4 8.8 31.2 5.5C34.1 4.6 35.3 3.5 35.3 2C35.3 0.900002 34.5 0 32.3 0H3C1.7 0 0.8 3.8 0.8 17.5C0.8 31.2 1.7 35 3 35ZM72.2 27.1C74.1 33.5 75.7 35 78 35V0H48.7C46.5 0 45.7 0.900002 45.7 2C45.7 3.5 46.9 4.6 49.8 5.5C60.6 8.8 69.3 17.3 72.2 27.1ZM47.5 37.6C47.5 39.5 46.6 41.1 45.2 42.2C44.6 42.6 43.1 43.6 43.1 45.5V52.9C43.1 55.5 44.8 55.9 46.3 55.3C53.8 52.7 59.3 45.8 59.3 37.5C59.3 29.4 53.9 22.3 46.3 19.6C44.9 19.1 43.1 19.8 43.1 22.1V29.4C43.1 31.6 44.7 32.4 45.2 32.8C46.7 33.9 47.5 35.7 47.5 37.6ZM33.5 37.6C33.5 35.7 34.3 33.9 35.8 32.8C36.3 32.4 37.9 31.6 37.9 29.4V22.1C37.9 19.8 36.1 19.1 34.7 19.6C27.1 22.3 21.7 29.4 21.7 37.5C21.7 45.8 27.2 52.7 34.7 55.3C36.2 55.9 37.9 55.5 37.9 52.9V45.5C37.9 43.6 36.4 42.6 35.8 42.2C34.4 41.1 33.5 39.5 33.5 37.6ZM3 75H32.3C34.5 75 35.3 74.1 35.3 73C35.3 71.5 34.1 70.4 31.2 69.5C20.4 66.2 11.7 57.7 8.8 47.9C6.9 41.5 5.3 40 3 40C1.7 40 0.8 43.8 0.8 57.5C0.8 71.2 1.7 75 3 75ZM72.2 47.9C69.3 57.7 60.6 66.2 49.8 69.5C46.9 70.4 45.7 71.5 45.7 73C45.7 74.1 46.5 75 48.7 75H78V40C75.7 40 74.1 41.5 72.2 47.9ZM78 35C80.3 35 81.9 33.5 83.8 27.1C86.7 17.3 95.4 8.8 106.2 5.5C109.1 4.6 110.3 3.5 110.3 2C110.3 0.900002 109.5 0 107.3 0H78C76.7 0 75.8 3.8 75.8 17.5C75.8 31.2 76.7 35 78 35ZM137.1 31.5H140.8C146.6 31.5 148.1 35 153 35V0H123.7C121.5 0 120.7 0.900002 120.7 2C120.7 3.5 121.9 4.6 124.8 5.5C132 7.7 138 11.7 141.7 17.2C143.8 20.3 142.5 22.6 140.3 23.7L136.3 25.7C133.8 27 133.1 27.9 133.2 28.9C133.2 30.2 134.5 31.5 137.1 31.5ZM109.5 40.3V35.8C109.5 33.1 111.4 31.5 114.2 31.5H124.5C128.3 31.5 131 27.7 128.3 24.1C125.2 20.5 120.2 18.6 115.5 18.6C105.2 18.6 96.7 27.2 96.7 37.5C96.7 47.8 105.2 56.3 115.5 56.3C124.6 56.3 130.1 52.4 132.2 46.7C132.8 45.2 132.2 44.1 130.5 44.1H114.2C111.2 44.1 109.5 42 109.5 40.3ZM78 75H107.3C109.5 75 110.3 74.1 110.3 73C110.3 71.5 109.1 70.4 106.2 69.5C95.4 66.2 86.7 57.7 83.8 47.9C81.9 41.5 80.3 40 78 40C76.7 40 75.8 43.8 75.8 57.5C75.8 71.2 76.7 75 78 75ZM147.9 49.2V70C147.9 72.5 148.8 75 153 75V40C149.9 40 147.9 42.5 147.9 49.2ZM136.1 61C135.4 61 134.7 61.5 134.1 62.4C131.8 65.6 127.5 68.7 123.7 70.1C121.8 70.8 120.7 71.6 120.7 73C120.7 74.1 121.5 75 123.7 75H141.4C143.7 75 144.4 74.6 143.6 71.6C141.2 62.6 138 61 136.1 61ZM153 75C159.5 75 159.8 70 167 70H214C221.2 70 221.5 75 228 75V40H223.5C222 40 221 39 221 37.5C221 36 222 35 223.5 35H228V0H153C151.7 0 150.8 3.8 150.8 17.5C150.8 31.2 151.7 35 153 35H157.5C159 35 160 36 160 37.5C160 39 159 40 157.5 40H153C151.7 40 150.8 43.8 150.8 57.5C150.8 71.2 151.7 75 153 75ZM228 35H234C236.8 35 239 32.8 239 30V5C239 2.2 236.8 0 234 0H228C226.7 0 225.8 3.8 225.8 17.5C225.8 31.2 226.7 35 228 35ZM294.6 25.7C297.8 33.7 299.9 35 303 35V0H263.5C262.1 0 261.6 0.500002 261.6 1.1C261.6 1.7 261.7 2.5 263.6 2.8C278 4.8 290.6 15.6 294.6 25.7ZM254.5 57.3C254.5 60 256.6 60 258.3 59.9C271.2 58.9 281.3 51.6 281.3 37.5C281.3 23.4 271.4 16.1 258.3 15.1C256.7 15 254.5 15.2 254.5 17.7V57.3ZM294.6 49.3C290.6 59.4 278 70.2 263.6 72.2C261.7 72.5 261.6 73.3 261.6 73.9C261.6 74.5 262.1 75 263.5 75H303V40C299.9 40 297.8 41.3 294.6 49.3ZM228 75H234C236.8 75 239 72.8 239 70V45C239 42.2 236.8 40 234 40H228C226.7 40 225.8 43.8 225.8 57.5C225.8 71.2 226.7 75 228 75ZM329.3 26.1C329.3 28.9 331.5 31.1 334.3 31.1H357.6C361.5 31.1 360.8 35 366 35H378V0H376C370.5 0 376.9 11.9 368.8 11.9H334.3C331.5 11.9 329.3 14.1 329.3 16.9V26.1ZM303 35H309C311.8 35 314 32.7 314 29.8V5C314 2.2 311.8 0 309 0H303C301.7 0 300.8 3.8 300.8 17.5C300.8 31.2 301.7 35 303 35ZM303 75H309C311.8 75 314 72.8 314 70V45C314 42.2 311.8 40 309 40H303C301.7 40 300.8 43.8 300.8 57.5C300.8 71.2 301.7 75 303 75ZM329.3 48.9V58C329.3 60.8 331.5 63 334.3 63H368.8C376.9 63 370.5 75 376 75H378V40H366C360.8 40 361.5 43.7 357.6 43.7H334.3C331.5 43.7 329.3 46 329.3 48.9ZM410.4 67.1C410.8 70.5 412.6 73.1 415.4 73.1H415.7C418.5 73.1 420.3 70.5 420.7 67.1L428.5 6C428.9 2.6 426.3 0 423.5 0H407.5C404.7 0 402.1 2.6 402.5 6L410.4 67.1ZM450.2 0C447.4 0 445.6 2.1 445.2 5L441.4 29.8C441 32.6 443 35 445.9 35H453V0H450.2ZM378 35H385.5C388.4 35 390.4 32.6 390 29.8L386.2 5C385.8 2.1 384 0 381.2 0H378C376.7 0 375.8 3.8 375.8 17.5C375.8 31.2 376.7 35 378 35ZM378 75H391.2C395 75 396.6 72.9 396.2 70L392.3 44.7C391.8 41.7 389.8 40 386.8 40H378C376.7 40 375.8 43.8 375.8 57.5C375.8 71.2 376.7 75 378 75ZM444.6 40C441.6 40 439.6 41.7 439.1 44.7L435.2 70C434.8 72.9 436.4 75 440.2 75H453V40H444.6Z" fill="#FEFEFE"/>
</svg>
