<svg width="227" height="38" viewBox="0 0 227 38" fill="none" xmlns="http://www.w3.org/2000/svg">
<path d="M2 18C3.15 18 3.95 17.25 4.9 14.05C6.35 9.15 10.7 4.9 16.1 3.25C17.55 2.8 18.15 2.25 18.15 1.5C18.15 0.950001 17.75 0.5 16.65 0.5H2C1.35 0.5 0.9 2.4 0.9 9.25C0.9 16.1 1.35 18 2 18ZM36.6 14.05C37.55 17.25 38.35 18 39.5 18V0.5H24.85C23.75 0.5 23.35 0.950001 23.35 1.5C23.35 2.25 23.95 2.8 25.4 3.25C30.8 4.9 35.15 9.15 36.6 14.05ZM24.25 19.3C24.25 20.25 23.8 21.05 23.1 21.6C22.8 21.8 22.05 22.3 22.05 23.25V26.95C22.05 28.25 22.9 28.45 23.65 28.15C27.4 26.85 30.15 23.4 30.15 19.25C30.15 15.2 27.45 11.65 23.65 10.3C22.95 10.05 22.05 10.4 22.05 11.55V15.2C22.05 16.3 22.85 16.7 23.1 16.9C23.85 17.45 24.25 18.35 24.25 19.3ZM17.25 19.3C17.25 18.35 17.65 17.45 18.4 16.9C18.65 16.7 19.45 16.3 19.45 15.2V11.55C19.45 10.4 18.55 10.05 17.85 10.3C14.05 11.65 11.35 15.2 11.35 19.25C11.35 23.4 14.1 26.85 17.85 28.15C18.6 28.45 19.45 28.25 19.45 26.95V23.25C19.45 22.3 18.7 21.8 18.4 21.6C17.7 21.05 17.25 20.25 17.25 19.3ZM2 38H16.65C17.75 38 18.15 37.55 18.15 37C18.15 36.25 17.55 35.7 16.1 35.25C10.7 33.6 6.35 29.35 4.9 24.45C3.95 21.25 3.15 20.5 2 20.5C1.35 20.5 0.9 22.4 0.9 29.25C0.9 36.1 1.35 38 2 38ZM36.6 24.45C35.15 29.35 30.8 33.6 25.4 35.25C23.95 35.7 23.35 36.25 23.35 37C23.35 37.55 23.75 38 24.85 38H39.5V20.5C38.35 20.5 37.55 21.25 36.6 24.45ZM39.5 18C40.65 18 41.45 17.25 42.4 14.05C43.85 9.15 48.2 4.9 53.6 3.25C55.05 2.8 55.65 2.25 55.65 1.5C55.65 0.950001 55.25 0.5 54.15 0.5H39.5C38.85 0.5 38.4 2.4 38.4 9.25C38.4 16.1 38.85 18 39.5 18ZM69.05 16.25H70.9C73.8 16.25 74.55 18 77 18V0.5H62.35C61.25 0.5 60.85 0.950001 60.85 1.5C60.85 2.25 61.45 2.8 62.9 3.25C66.5 4.35 69.5 6.35 71.35 9.1C72.4 10.65 71.75 11.8 70.65 12.35L68.65 13.35C67.4 14 67.05 14.45 67.1 14.95C67.1 15.6 67.75 16.25 69.05 16.25ZM55.25 20.65V18.4C55.25 17.05 56.2 16.25 57.6 16.25H62.75C64.65 16.25 66 14.35 64.65 12.55C63.1 10.75 60.6 9.8 58.25 9.8C53.1 9.8 48.85 14.1 48.85 19.25C48.85 24.4 53.1 28.65 58.25 28.65C62.8 28.65 65.55 26.7 66.6 23.85C66.9 23.1 66.6 22.55 65.75 22.55H57.6C56.1 22.55 55.25 21.5 55.25 20.65ZM39.5 38H54.15C55.25 38 55.65 37.55 55.65 37C55.65 36.25 55.05 35.7 53.6 35.25C48.2 33.6 43.85 29.35 42.4 24.45C41.45 21.25 40.65 20.5 39.5 20.5C38.85 20.5 38.4 22.4 38.4 29.25C38.4 36.1 38.85 38 39.5 38ZM74.45 25.1V35.5C74.45 36.75 74.9 38 77 38V20.5C75.45 20.5 74.45 21.75 74.45 25.1ZM68.55 31C68.2 31 67.85 31.25 67.55 31.7C66.4 33.3 64.25 34.85 62.35 35.55C61.4 35.9 60.85 36.3 60.85 37C60.85 37.55 61.25 38 62.35 38H71.2C72.35 38 72.7 37.8 72.3 36.3C71.1 31.8 69.5 31 68.55 31ZM77 38C80.25 38 80.4 35.5 84 35.5H107.5C111.1 35.5 111.25 38 114.5 38V20.5H112.25C111.5 20.5 111 20 111 19.25C111 18.5 111.5 18 112.25 18H114.5V0.5H77C76.35 0.5 75.9 2.4 75.9 9.25C75.9 16.1 76.35 18 77 18H79.25C80 18 80.5 18.5 80.5 19.25C80.5 20 80 20.5 79.25 20.5H77C76.35 20.5 75.9 22.4 75.9 29.25C75.9 36.1 76.35 38 77 38ZM114.5 18H117.5C118.9 18 120 16.9 120 15.5V3C120 1.6 118.9 0.5 117.5 0.5H114.5C113.85 0.5 113.4 2.4 113.4 9.25C113.4 16.1 113.85 18 114.5 18ZM147.8 13.35C149.4 17.35 150.45 18 152 18V0.5H132.25C131.55 0.5 131.3 0.750001 131.3 1.05C131.3 1.35 131.35 1.75 132.3 1.9C139.5 2.9 145.8 8.3 147.8 13.35ZM127.75 29.15C127.75 30.5 128.8 30.5 129.65 30.45C136.1 29.95 141.15 26.3 141.15 19.25C141.15 12.2 136.2 8.55 129.65 8.05C128.85 8 127.75 8.1 127.75 9.35V29.15ZM147.8 25.15C145.8 30.2 139.5 35.6 132.3 36.6C131.35 36.75 131.3 37.15 131.3 37.45C131.3 37.75 131.55 38 132.25 38H152V20.5C150.45 20.5 149.4 21.15 147.8 25.15ZM114.5 38H117.5C118.9 38 120 36.9 120 35.5V23C120 21.6 118.9 20.5 117.5 20.5H114.5C113.85 20.5 113.4 22.4 113.4 29.25C113.4 36.1 113.85 38 114.5 38ZM165.15 13.55C165.15 14.95 166.25 16.05 167.65 16.05H179.3C181.25 16.05 180.9 18 183.5 18H189.5V0.5H188.5C185.75 0.5 188.95 6.45 184.9 6.45H167.65C166.25 6.45 165.15 7.55 165.15 8.95V13.55ZM152 18H155C156.4 18 157.5 16.85 157.5 15.4V3C157.5 1.6 156.4 0.5 155 0.5H152C151.35 0.5 150.9 2.4 150.9 9.25C150.9 16.1 151.35 18 152 18ZM152 38H155C156.4 38 157.5 36.9 157.5 35.5V23C157.5 21.6 156.4 20.5 155 20.5H152C151.35 20.5 150.9 22.4 150.9 29.25C150.9 36.1 151.35 38 152 38ZM165.15 24.95V29.5C165.15 30.9 166.25 32 167.65 32H184.9C188.95 32 185.75 38 188.5 38H189.5V20.5H183.5C180.9 20.5 181.25 22.35 179.3 22.35H167.65C166.25 22.35 165.15 23.5 165.15 24.95ZM205.7 34.05C205.9 35.75 206.8 37.05 208.2 37.05H208.35C209.75 37.05 210.65 35.75 210.85 34.05L214.75 3.5C214.95 1.8 213.65 0.5 212.25 0.5H204.25C202.85 0.5 201.55 1.8 201.75 3.5L205.7 34.05ZM225.6 0.5C224.2 0.5 223.3 1.55 223.1 3L221.2 15.4C221 16.8 222 18 223.45 18H227V0.5H225.6ZM189.5 18H193.25C194.7 18 195.7 16.8 195.5 15.4L193.6 3C193.4 1.55 192.5 0.5 191.1 0.5H189.5C188.85 0.5 188.4 2.4 188.4 9.25C188.4 16.1 188.85 18 189.5 18ZM189.5 38H196.1C198 38 198.8 36.95 198.6 35.5L196.65 22.85C196.4 21.35 195.4 20.5 193.9 20.5H189.5C188.85 20.5 188.4 22.4 188.4 29.25C188.4 36.1 188.85 38 189.5 38ZM222.8 20.5C221.3 20.5 220.3 21.35 220.05 22.85L218.1 35.5C217.9 36.95 218.7 38 220.6 38H227V20.5H222.8Z" fill="#0A0A0A"/>
</svg>
